<?xml version="1.0" encoding="iso-8859-1"?>
<!-- Generator: Adobe Illustrator 19.0.0, SVG Export Plug-In . SVG Version: 6.00 Build 0)  -->
<svg version="1.1" id="Layer_1" xmlns="http://www.w3.org/2000/svg" xmlns:xlink="http://www.w3.org/1999/xlink" x="0px" y="0px"
	 viewBox="0 0 512.001 512.001" style="enable-background:new 0 0 512.001 512.001;" xml:space="preserve">
<g>
	<g>
		<path d="M410.149,69.332c-32.484-27.057-71.622-45.516-113.183-53.382c-40.665-7.696-82.978-5.184-122.365,7.265
			c-4.576,1.447-7.112,6.327-5.666,10.903s6.328,7.113,10.903,5.667c36.658-11.587,76.042-13.926,113.896-6.761
			c38.664,7.318,75.073,24.49,105.292,49.66c1.624,1.353,3.596,2.012,5.556,2.012c2.49,0,4.963-1.065,6.681-3.128
			C414.336,77.882,413.836,72.403,410.149,69.332z"/>
	</g>
</g>
<g>
	<g>
		<path d="M442.304,101.412c-3.078-3.678-8.559-4.165-12.239-1.087c-3.68,3.079-4.167,8.559-1.088,12.239
			c37.17,44.421,56.303,100.888,53.875,159.001c-2.442,58.459-26.589,113.457-67.992,154.859
			c-41.041,41.041-95.544,65.166-153.47,67.931c-57.531,2.748-113.689-15.699-158.122-51.94c-3.718-3.034-9.191-2.477-12.224,1.242
			c-3.033,3.719-2.477,9.191,1.242,12.224c44.653,36.42,100.301,56.118,157.878,56.118c4.006,0,8.033-0.096,12.055-0.288
			c62.252-2.971,120.825-28.897,164.929-73c44.493-44.493,70.443-103.596,73.066-166.422
			C502.823,209.844,482.257,149.159,442.304,101.412z"/>
	</g>
</g>
<g>
	<g>
		<path d="M155,39.577c-2.047-4.341-7.226-6.2-11.565-4.151C117.415,47.7,93.815,64.33,73.291,84.854
			c-44.103,44.105-70.029,102.678-73,164.929c-2.951,61.824,16.876,122.174,55.831,169.933c1.717,2.107,4.218,3.198,6.738,3.198
			c1.931,0,3.874-0.641,5.486-1.956c3.719-3.033,4.275-8.505,1.242-12.224c-36.24-44.433-54.686-100.589-51.94-158.123
			c2.765-57.925,26.89-112.429,67.931-153.47c19.105-19.105,41.066-34.582,65.271-46C155.189,49.095,157.049,43.917,155,39.577z"/>
	</g>
</g>
<g>
	<g>
		<path d="M404.74,204.55c-1.665-4.501-6.662-6.799-11.163-5.137c-4.501,1.665-6.8,6.661-5.137,11.163
			c6.841,18.502,9.869,37.92,9,57.712c-0.211,4.794,3.504,8.851,8.299,9.061c0.13,0.006,0.26,0.008,0.388,0.008
			c4.623,0.001,8.468-3.642,8.673-8.306C415.772,246.936,412.388,225.234,404.74,204.55z"/>
	</g>
</g>
<g>
	<g>
		<path d="M404.002,289.771c-4.67-1.118-9.355,1.763-10.47,6.431c-6.306,26.375-19.831,50.507-39.111,69.787
			c-40.567,40.567-101.564,53.917-155.404,34.012c-4.502-1.664-9.498,0.635-11.162,5.137c-1.665,4.501,0.636,9.498,5.137,11.162
			c18.531,6.851,37.81,10.176,56.958,10.176c43.038,0,85.373-16.816,116.758-48.2c21.552-21.552,36.671-48.535,43.724-78.033
			C411.547,295.575,408.668,290.888,404.002,289.771z"/>
	</g>
</g>
<g>
	<g>
		<path d="M307.457,107.268c-60.179-22.249-128.371-7.321-173.725,38.032c-45.348,45.348-60.273,113.536-38.024,173.716
			c1.297,3.508,4.618,5.678,8.151,5.678c1.001,0,2.018-0.174,3.012-0.541c4.501-1.665,6.801-6.661,5.137-11.162
			c-19.905-53.838-6.553-114.837,34.012-155.403c40.57-40.572,101.574-53.927,155.412-34.022c4.498,1.661,9.498-0.636,11.162-5.137
			C314.259,113.929,311.958,108.932,307.457,107.268z"/>
	</g>
</g>
<g>
	<g>
		<path d="M499.075,12.923c-17.232-17.231-45.269-17.231-62.501,0c-15.13,15.13-16.975,38.589-5.537,55.751l-53.571,53.571
			l-3.684-3.684c-6.399-6.399-14.908-9.925-23.959-9.925c-9.051,0-17.56,3.524-23.959,9.925c-6.399,6.399-9.925,14.908-9.925,23.959
			c0,9.051,3.524,17.56,9.925,23.959l3.684,3.684L304.51,195.2l-21.5-21.5c-3.393-3.393-8.895-3.393-12.287,0l-35.632,35.632
			c-3.393,3.393-3.393,8.895,0,12.287l21.5,21.5l-25.037,25.035l-3.684-3.684c-6.399-6.399-14.908-9.924-23.959-9.924
			s-17.56,3.524-23.959,9.924c-6.399,6.399-9.924,14.908-9.924,23.959s3.524,17.56,9.924,23.959l3.684,3.684L158.6,341.108
			l-21.5-21.5c-3.393-3.393-8.895-3.393-12.287,0c-3.393,3.393-3.393,8.895,0,12.287l49.146,49.147l-23.344,23.344l-43.003-43.003
			l10.898-10.898c3.393-3.393,3.393-8.895,0-12.287c-3.393-3.394-8.895-3.393-12.287,0l-17.041,17.041
			c-3.393,3.393-3.393,8.895,0,12.287l21.499,21.5l-71.397,71.404c-3.393,3.393-3.393,8.895,0,12.287
			c1.696,1.696,3.92,2.545,6.143,2.545s4.447-0.848,6.143-2.545l71.398-71.398l21.505,21.503c1.629,1.63,3.839,2.545,6.143,2.545
			s4.515-0.915,6.143-2.545l35.632-35.632c3.393-3.393,3.393-8.895,0-12.287l-21.503-21.504l25.037-25.035l3.687,3.687
			c6.399,6.399,14.908,9.924,23.959,9.924c9.051,0,17.56-3.524,23.959-9.924c6.399-6.399,9.924-14.908,9.924-23.959
			c0-9.051-3.524-17.56-9.924-23.959l-3.687-3.689l25.035-25.036l21.503,21.503c1.696,1.696,3.92,2.545,6.143,2.545
			s4.447-0.848,6.143-2.545l35.632-35.632c3.393-3.393,3.393-8.895,0-12.287l-21.503-21.504l25.037-25.037l3.687,3.689
			c6.399,6.399,14.908,9.925,23.959,9.925c9.051,0,17.56-3.524,23.959-9.925c6.399-6.399,9.925-14.908,9.925-23.959
			c0-9.051-3.524-17.56-9.925-23.959l-3.687-3.687l59.108-59.108c3.393-3.393,3.393-8.895,0-12.287
			c-5.066-5.066-7.854-11.8-7.854-18.964c0-7.164,2.79-13.898,7.854-18.964c10.456-10.456,27.471-10.455,37.927,0
			c10.456,10.456,10.456,27.471,0,37.927c-3.393,3.393-3.393,8.895,0,12.287c3.393,3.394,8.895,3.393,12.287,0
			C516.306,58.192,516.306,30.154,499.075,12.923z M235.245,319.763c-3.117,3.117-7.264,4.834-11.673,4.834
			s-8.554-1.717-11.672-4.834l-19.659-19.659c-3.117-3.117-4.834-7.264-4.834-11.672c-0.001-4.409,1.716-8.554,4.834-11.673
			c3.117-3.117,7.264-4.834,11.672-4.834c4.409,0,8.554,1.717,11.673,4.834l19.659,19.659c3.117,3.117,4.834,7.264,4.834,11.673
			S238.362,316.646,235.245,319.763z M319.871,235.136l-23.344,23.344l-43.003-43.003l23.344-23.344L319.871,235.136z
			 M381.154,173.853c-3.117,3.119-7.264,4.834-11.672,4.834c-4.409,0-8.554-1.717-11.673-4.834l-19.659-19.659
			c-3.117-3.117-4.834-7.264-4.834-11.673c0-4.408,1.717-8.553,4.834-11.671c3.117-3.117,7.263-4.834,11.673-4.834
			s8.554,1.717,11.672,4.834l19.659,19.659c3.117,3.117,4.834,7.264,4.834,11.672C385.988,166.589,384.271,170.734,381.154,173.853z
			"/>
	</g>
</g>
<g>
</g>
<g>
</g>
<g>
</g>
<g>
</g>
<g>
</g>
<g>
</g>
<g>
</g>
<g>
</g>
<g>
</g>
<g>
</g>
<g>
</g>
<g>
</g>
<g>
</g>
<g>
</g>
<g>
</g>
</svg>
