<svg width="151" height="151" viewBox="0 0 151 151" fill="none" xmlns="http://www.w3.org/2000/svg">
<g clip-path="url(#clip0_8_2)">
<path d="M120.962 20.4475C111.381 12.4678 99.8388 7.02384 87.5816 4.70399C75.5886 2.43427 63.1096 3.17512 51.4936 6.84659C50.144 7.27334 49.3961 8.71256 49.8225 10.0621C50.249 11.4117 51.6888 12.1599 53.0381 11.7334C63.8493 8.31619 75.4645 7.62636 86.6284 9.73948C98.0313 11.8977 108.769 16.9621 117.681 24.3853C118.16 24.7843 118.742 24.9787 119.32 24.9787C120.054 24.9787 120.784 24.6646 121.29 24.0561C122.197 22.9691 122.049 21.3532 120.962 20.4475Z" fill="url(#paint0_linear_8_2)"/>
<path d="M130.445 29.9086C129.537 28.8238 127.921 28.6802 126.835 29.588C125.75 30.496 125.606 32.1122 126.514 33.1975C137.477 46.2982 143.119 62.9515 142.403 80.0903C141.683 97.3311 134.562 113.551 122.351 125.762C110.247 137.865 94.1731 144.98 77.0895 145.796C60.1224 146.606 43.5602 141.166 30.4559 130.478C29.3594 129.583 27.7453 129.747 26.8508 130.844C25.9563 131.941 26.1203 133.555 27.2171 134.449C40.3862 145.19 56.798 150.999 73.7787 150.999C74.9602 150.999 76.1478 150.971 77.334 150.914C95.6934 150.038 112.968 142.392 125.975 129.385C139.097 116.263 146.75 98.8326 147.524 80.3038C148.293 61.8875 142.228 43.9902 130.445 29.9086Z" fill="url(#paint1_linear_8_2)"/>
<path d="M45.7128 11.6721C45.1091 10.3918 43.5817 9.84359 42.302 10.4479C34.6282 14.0677 27.668 18.9723 21.6151 25.0253C8.60816 38.0328 0.962033 55.3072 0.0858211 73.6663C-0.784492 91.8996 5.06291 109.698 16.5516 123.783C17.058 124.405 17.7956 124.726 18.5388 124.726C19.1083 124.726 19.6813 124.537 20.1567 124.149C21.2535 123.255 21.4175 121.641 20.523 120.544C9.83504 107.44 4.39492 90.8785 5.20477 73.9105C6.02023 56.8272 13.1352 40.7528 25.2391 28.6489C30.8736 23.0145 37.3503 18.45 44.4889 15.0826C45.7686 14.4792 46.3171 12.9521 45.7128 11.6721Z" fill="url(#paint2_linear_8_2)"/>
<path d="M119.366 60.3262C118.875 58.9987 117.402 58.321 116.074 58.8111C114.747 59.3022 114.069 60.7756 114.559 62.1034C116.577 67.56 117.47 73.2868 117.214 79.1239C117.151 80.5377 118.247 81.7342 119.661 81.7961C119.699 81.7979 119.738 81.7985 119.776 81.7985C121.139 81.7988 122.273 80.7244 122.333 79.3489C122.62 72.8267 121.622 66.4263 119.366 60.3262Z" fill="url(#paint3_linear_8_2)"/>
<path d="M119.149 85.4596C117.772 85.1299 116.39 85.9796 116.061 87.3563C114.201 95.1348 110.212 102.252 104.526 107.938C92.5622 119.902 74.5729 123.839 58.6944 117.969C57.3666 117.478 55.8932 118.156 55.4024 119.484C54.9114 120.811 55.59 122.285 56.9175 122.776C62.3826 124.796 68.0684 125.777 73.7156 125.777C86.4084 125.777 98.8939 120.817 108.15 111.562C114.506 105.206 118.965 97.2476 121.045 88.5481C121.374 87.1714 120.525 85.7891 119.149 85.4596Z" fill="url(#paint4_linear_8_2)"/>
<path d="M90.6756 31.6356C72.9275 25.0739 52.8163 29.4765 39.4404 42.8521C26.0663 56.2262 21.6646 76.3363 28.2263 94.0846C28.6088 95.1192 29.5883 95.7592 30.6302 95.7592C30.9254 95.7592 31.2254 95.7079 31.5185 95.5996C32.846 95.1086 33.5243 93.6352 33.0335 92.3077C27.1631 76.4297 31.1009 58.4398 43.0644 46.4761C55.0294 34.5105 73.0207 30.5718 88.8987 36.4422C90.2253 36.9321 91.6999 36.2547 92.1906 34.9272C92.6817 33.6001 92.0031 32.1264 90.6756 31.6356Z" fill="url(#paint5_linear_8_2)"/>
<path d="M147.188 3.81127C142.106 -1.27052 133.837 -1.27052 128.755 3.81127C124.293 8.27343 123.749 15.192 127.122 20.2534L111.323 36.0527L110.236 34.9662C108.349 33.079 105.84 32.0391 103.17 32.0391C100.501 32.0391 97.9914 33.0784 96.1042 34.9662C94.217 36.8534 93.1771 39.3628 93.1771 42.0322C93.1771 44.7015 94.2164 47.211 96.1042 49.0982L97.1907 50.1847L89.8065 57.5686L83.4657 51.2278C82.465 50.2272 80.8423 50.2272 79.842 51.2278L69.3333 61.7365C68.3327 62.7371 68.3327 64.3598 69.3333 65.3602L75.6741 71.701L68.2902 79.0843L67.2037 77.9978C65.3165 76.1106 62.807 75.071 60.1377 75.071C57.4684 75.071 54.9589 76.1103 53.0717 77.9978C51.1845 79.885 50.1449 82.3945 50.1449 85.0638C50.1449 87.7332 51.1842 90.2427 53.0717 92.1299L54.1582 93.2164L46.7745 100.6L40.4337 94.2592C39.433 93.2585 37.8104 93.2585 36.81 94.2592C35.8093 95.2599 35.8093 96.8825 36.81 97.8829L51.3042 112.377L44.4196 119.262L31.7371 106.58L34.9511 103.365C35.9518 102.365 35.9518 100.742 34.9511 99.7418C33.9505 98.7408 32.3278 98.7411 31.3274 99.7418L26.3017 104.768C25.301 105.768 25.301 107.391 26.3017 108.391L32.6422 114.732L11.5857 135.791C10.585 136.791 10.585 138.414 11.5857 139.414C12.0859 139.915 12.7418 140.165 13.3974 140.165C14.053 140.165 14.7089 139.915 15.2091 139.414L36.2659 118.358L42.6082 124.699C43.0886 125.18 43.7404 125.45 44.4199 125.45C45.0994 125.45 45.7514 125.18 46.2316 124.699L56.7402 114.191C57.7409 113.19 57.7409 111.567 56.7402 110.567L50.3985 104.225L57.7825 96.8415L58.8698 97.9289C60.757 99.8161 63.2665 100.856 65.9358 100.856C68.6052 100.856 71.1147 99.8164 73.0019 97.9289C74.8891 96.0417 75.9287 93.5322 75.9287 90.8629C75.9287 88.1936 74.8894 85.6841 73.0019 83.7969L71.9145 82.7089L79.2978 75.3253L85.6395 81.667C86.1397 82.1671 86.7956 82.4175 87.4512 82.4175C88.1068 82.4175 88.7628 82.1674 89.2629 81.667L99.7716 71.1583C100.772 70.1576 100.772 68.535 99.7716 67.5346L93.4299 61.1926L100.814 53.8087L101.901 54.8966C103.788 56.7838 106.298 57.8237 108.967 57.8237C111.637 57.8237 114.146 56.7844 116.033 54.8966C117.92 53.0094 118.96 50.5 118.96 47.8306C118.96 45.1613 117.921 42.6518 116.033 40.7646L114.946 39.6772L132.378 22.245C133.379 21.2444 133.379 19.6217 132.378 18.6213C130.884 17.1273 130.062 15.1413 130.062 13.0284C130.062 10.9156 130.885 8.92962 132.378 7.43555C135.462 4.35186 140.48 4.35215 143.564 7.43555C146.647 10.5193 146.647 15.5373 143.564 18.621C142.563 19.6217 142.563 21.2444 143.564 22.2447C144.564 23.2457 146.187 23.2454 147.187 22.2447C152.27 17.1621 152.27 8.89305 147.188 3.81127ZM69.3788 94.3049C68.4595 95.2242 67.2365 95.7306 65.9361 95.7306C64.6358 95.7306 63.4134 95.2242 62.4938 94.3049L56.696 88.5071C55.7767 87.5878 55.2703 86.3648 55.2703 85.0647C55.27 83.7644 55.7764 82.542 56.696 81.6221C57.6152 80.7029 58.8383 80.1965 60.1383 80.1965C61.4386 80.1965 62.661 80.7029 63.5809 81.6221L69.3788 87.42C70.298 88.3392 70.8044 89.5623 70.8044 90.8626C70.8044 92.1629 70.298 93.3856 69.3788 94.3049ZM94.3368 69.3466L87.4521 76.2313L74.7696 63.5488L81.6543 56.6641L94.3368 69.3466ZM112.41 51.2729C111.491 52.1928 110.268 52.6986 108.968 52.6986C107.668 52.6986 106.445 52.1922 105.525 51.2729L99.7276 45.4751C98.8084 44.5558 98.302 43.3328 98.302 42.0325C98.302 40.7325 98.8084 39.51 99.7276 38.5905C100.647 37.6712 101.87 37.1648 103.17 37.1648C104.471 37.1648 105.693 37.6712 106.613 38.5905L112.41 44.3883C113.33 45.3076 113.836 46.5306 113.836 47.8306C113.836 49.1306 113.33 50.3531 112.41 51.2729Z" fill="url(#paint6_linear_8_2)"/>
</g>
<defs>
<linearGradient id="paint0_linear_8_2" x1="85.7935" y1="3.41629" x2="85.7935" y2="24.9787" gradientUnits="userSpaceOnUse">
<stop stop-color="#DCCA87"/>
<stop offset="1" stop-color="#FBF6C1"/>
</linearGradient>
<linearGradient id="paint1_linear_8_2" x1="86.9315" y1="28.991" x2="86.9315" y2="150.999" gradientUnits="userSpaceOnUse">
<stop stop-color="#DCCA87"/>
<stop offset="1" stop-color="#FBF6C1"/>
</linearGradient>
<linearGradient id="paint2_linear_8_2" x1="22.9798" y1="10.2021" x2="22.9798" y2="124.726" gradientUnits="userSpaceOnUse">
<stop stop-color="#DCCA87"/>
<stop offset="1" stop-color="#FBF6C1"/>
</linearGradient>
<linearGradient id="paint3_linear_8_2" x1="118.391" y1="58.6517" x2="118.391" y2="81.7985" gradientUnits="userSpaceOnUse">
<stop stop-color="#DCCA87"/>
<stop offset="1" stop-color="#FBF6C1"/>
</linearGradient>
<linearGradient id="paint4_linear_8_2" x1="88.1793" y1="85.3886" x2="88.1793" y2="125.777" gradientUnits="userSpaceOnUse">
<stop stop-color="#DCCA87"/>
<stop offset="1" stop-color="#FBF6C1"/>
</linearGradient>
<linearGradient id="paint5_linear_8_2" x1="58.7878" y1="28.6348" x2="58.7878" y2="95.7592" gradientUnits="userSpaceOnUse">
<stop stop-color="#DCCA87"/>
<stop offset="1" stop-color="#FBF6C1"/>
</linearGradient>
<linearGradient id="paint6_linear_8_2" x1="80.9172" y1="-7.62939e-05" x2="80.9172" y2="140.165" gradientUnits="userSpaceOnUse">
<stop stop-color="#DCCA87"/>
<stop offset="1" stop-color="#FBF6C1"/>
</linearGradient>
<clipPath id="clip0_8_2">
<rect width="151" height="151" fill="white"/>
</clipPath>
</defs>
</svg>
