<svg width="595" height="64" viewBox="0 0 595 64" fill="none" xmlns="http://www.w3.org/2000/svg">
<path d="M12.4637 62C12.2758 62 12.1819 61.8122 12.1819 61.4365C12.1819 61.0608 12.2445 60.873 12.3698 60.873C14.9995 60.873 16.9092 60.7164 18.0989 60.4034C19.3511 60.0903 20.1964 59.4955 20.6347 58.6189C21.073 57.6797 21.2922 56.2709 21.2922 54.3925V10.9075C21.3548 8.71605 21.073 7.27595 20.4469 6.5872C19.8207 5.83584 18.6311 5.46016 16.8779 5.46016H15.657C13.5281 5.46016 11.4306 6.14891 9.36432 7.5264C7.29808 8.84128 5.54491 10.6258 4.1048 12.8798C2.66469 15.0713 1.78811 17.4819 1.47504 20.1117C1.47504 20.2369 1.31851 20.2995 1.00544 20.2995C0.8176 20.2995 0.62976 20.2682 0.44192 20.2056C0.316693 20.0804 0.285386 19.9865 0.348 19.9238C0.661066 17.5445 1.13067 11.3145 1.7568 1.23376C1.7568 1.04592 1.91333 0.952003 2.2264 0.952003C2.41424 0.952003 2.57077 0.983309 2.696 1.04592C2.88384 1.10854 2.97776 1.20246 2.97776 1.32768C2.97776 2.64257 4.38656 3.30001 7.20416 3.30001C12.2758 3.48784 18.6311 3.58176 26.2699 3.58176C29.7137 3.58176 33.5644 3.51915 37.8221 3.39392L44.3965 3.30001C46.4627 3.30001 47.9654 3.14347 48.9046 2.8304C49.8438 2.51733 50.4387 1.8912 50.6891 0.952003C50.8143 0.764161 51.0335 0.701549 51.3466 0.764165C51.7222 0.764165 51.8788 0.889392 51.8162 1.13985C51.6283 3.89483 51.4405 7.36987 51.2526 11.565C51.0648 15.6974 51.0022 18.4837 51.0648 19.9238C51.0648 20.1117 50.877 20.2056 50.5013 20.2056C50.0004 20.2056 49.7499 20.0804 49.7499 19.8299C49.7499 17.2628 49.1551 14.8835 47.9654 12.692C46.8384 10.5005 45.2418 8.74736 43.1755 7.43248C41.1719 6.1176 38.9804 5.46016 36.6011 5.46016H35.3802C34.1279 5.46016 33.22 5.6167 32.6565 5.92977C32.1556 6.24283 31.8425 6.77504 31.7173 7.5264C31.5921 8.21515 31.4981 9.4048 31.4355 11.0954L31.5294 54.3925C31.5294 56.3335 31.7173 57.7423 32.093 58.6189C32.5313 59.4955 33.3452 60.0903 34.5349 60.4034C35.7245 60.7164 37.6655 60.873 40.3579 60.873C40.5458 60.873 40.6397 61.0608 40.6397 61.4365C40.6397 61.8122 40.5458 62 40.3579 62C38.0412 62 36.2254 61.9687 34.9106 61.9061L26.3638 61.8122L18.2867 61.9061C16.9092 61.9687 14.9682 62 12.4637 62ZM122.98 60.873C123.167 60.873 123.261 61.0608 123.261 61.4365C123.261 61.8122 123.167 62 122.98 62L113.775 61.9061L106.638 62C105.949 62 105.511 61.9061 105.323 61.7182C105.197 61.5304 105.135 61.0295 105.135 60.2155V56.083C102.129 58.5876 99.0926 60.4034 96.0246 61.5304C93.0191 62.5948 89.732 63.127 86.163 63.127C81.7174 63.127 77.7415 62.3757 74.2352 60.873C70.7288 59.3702 67.9738 57.2101 65.9702 54.3925C63.9666 51.5749 62.9648 48.2877 62.9648 44.5309V10.9075C62.9648 9.09174 62.7769 7.74555 62.4012 6.86896C62.0882 5.92976 61.4933 5.30363 60.6168 4.99056C59.7402 4.61488 58.4253 4.42704 56.6721 4.42704C56.4843 4.42704 56.3904 4.2392 56.3904 3.86352C56.3904 3.48785 56.4843 3.30001 56.6721 3.30001L61.2742 3.39392C63.904 3.51915 66.1267 3.58176 67.9425 3.58176C69.5705 3.58176 71.8245 3.51915 74.7048 3.39392L79.4008 3.30001C79.6512 3.30001 79.7764 3.48785 79.7764 3.86352C79.839 4.2392 79.7764 4.42704 79.5886 4.42704C77.7102 4.42704 76.3014 4.61488 75.3622 4.99056C74.4856 5.36624 73.8908 5.99238 73.5777 6.86896C73.3273 7.74555 73.1707 9.15435 73.1081 11.0954V41.2437C73.0455 47.0667 74.4856 51.6062 77.4284 54.8621C80.3713 58.0554 84.4724 59.652 89.732 59.652C92.4243 59.652 94.9915 59.1824 97.4334 58.2432C99.8753 57.2414 102.442 55.6134 105.135 53.3594L105.041 11.0954C105.104 8.40299 104.728 6.61851 103.914 5.74192C103.1 4.86534 101.409 4.42704 98.8422 4.42704C98.6544 4.42704 98.5604 4.2392 98.5604 3.86352C98.5604 3.48785 98.623 3.30001 98.7483 3.30001L103.444 3.39392C106.199 3.51915 108.453 3.58176 110.207 3.58176C111.772 3.58176 113.995 3.51915 116.875 3.39392L121.571 3.30001C121.821 3.30001 121.947 3.48785 121.947 3.86352C122.009 4.2392 121.947 4.42704 121.759 4.42704C119.88 4.42704 118.471 4.61488 117.532 4.99056C116.656 5.30363 116.061 5.89846 115.748 6.77505C115.435 7.65163 115.278 9.02912 115.278 10.9075V54.3925C115.278 56.2709 115.466 57.6797 115.842 58.6189C116.217 59.4955 116.937 60.0903 118.002 60.4034C119.066 60.7164 120.726 60.873 122.98 60.873ZM192.611 60.873C192.799 60.873 192.893 61.0608 192.893 61.4365C192.955 61.8122 192.861 62 192.611 62H177.208C175.705 62 173.076 59.4955 169.319 54.4864C165.625 49.4147 161.148 41.8072 155.888 31.6638C154.135 32.1021 152.194 32.3213 150.065 32.3213C149.752 32.3213 149.345 32.2587 148.844 32.1334V54.3925C148.782 56.2083 148.907 57.5858 149.22 58.525C149.596 59.4015 150.222 60.0277 151.098 60.4034C152.038 60.7164 153.446 60.873 155.325 60.873C155.575 60.873 155.7 61.0608 155.7 61.4365C155.763 61.8122 155.669 62 155.419 62C153.29 62 151.662 61.9687 150.535 61.9061L143.585 61.8122L136.541 61.9061C135.289 61.9687 133.598 62 131.469 62C131.219 62 131.062 61.8122 131 61.4365C131 61.0608 131.125 60.873 131.375 60.873C133.441 60.873 134.975 60.7164 135.977 60.4034C136.979 60.0277 137.637 59.4015 137.95 58.525C138.325 57.5858 138.544 56.2083 138.607 54.3925V10.9075C138.607 9.02912 138.419 7.65163 138.044 6.77505C137.73 5.89846 137.104 5.30363 136.165 4.99056C135.226 4.61488 133.786 4.42704 131.845 4.42704C131.594 4.42704 131.469 4.2392 131.469 3.86352C131.469 3.48785 131.594 3.30001 131.845 3.30001L136.823 3.39392C139.578 3.51915 141.832 3.58176 143.585 3.58176C145.714 3.58176 148.03 3.45654 150.535 3.20608C152.538 3.08086 153.853 3.01824 154.48 3.01824C160.803 3.01824 165.531 4.05136 168.661 6.1176C171.855 8.18384 173.451 11.0641 173.451 14.7582C173.451 17.4506 172.543 20.0491 170.728 22.5536C168.974 25.0581 166.626 27.1557 163.684 28.8462C168.567 36.9234 172.7 43.2786 176.081 47.912C179.525 52.4828 182.53 55.8013 185.097 57.8675C187.727 59.8711 190.232 60.873 192.611 60.873ZM148.844 29.5037C149.596 29.6915 150.504 29.7854 151.568 29.7854C155.7 29.7854 158.612 28.8775 160.303 27.0618C162.056 25.246 162.932 22.2092 162.932 17.9515C162.932 13.506 162.056 10.2501 160.303 8.18384C158.612 6.05499 156.514 4.99056 154.01 4.99056C152.319 4.99056 151.161 5.11579 150.535 5.36624C149.909 5.55408 149.47 6.05499 149.22 6.86896C149.032 7.62032 148.907 9.02912 148.844 11.0954V29.5037ZM254.835 60.873C255.023 60.873 255.117 61.0608 255.117 61.4365C255.18 61.8122 255.086 62 254.835 62H245.255C241.561 62 239.244 61.8122 238.305 61.4365C237.429 61.0608 235.957 59.245 233.891 55.9891C231.887 52.7332 229.852 49.7278 227.786 46.9728L215.671 30.5368L212.008 34.1997V54.3925C212.008 56.5213 212.102 57.9927 212.289 58.8067C212.477 59.5581 212.978 60.0903 213.792 60.4034C214.669 60.7164 216.171 60.873 218.3 60.873C218.426 60.873 218.488 61.0608 218.488 61.4365C218.488 61.8122 218.426 62 218.3 62C216.234 62 214.669 61.9687 213.604 61.9061L206.56 61.8122L200.08 61.9061C198.89 61.9687 197.294 62 195.29 62C195.165 62 195.102 61.8122 195.102 61.4365C195.102 61.0608 195.165 60.873 195.29 60.873C197.231 60.873 198.64 60.7164 199.516 60.4034C200.393 60.0903 200.988 59.4955 201.301 58.6189C201.614 57.6797 201.77 56.2709 201.77 54.3925V10.9075C201.77 9.02912 201.614 7.65163 201.301 6.77505C200.988 5.89846 200.393 5.30363 199.516 4.99056C198.64 4.61488 197.325 4.42704 195.572 4.42704C195.384 4.42704 195.29 4.2392 195.29 3.86352C195.29 3.48785 195.384 3.30001 195.572 3.30001L200.08 3.39392C202.835 3.51915 205.058 3.58176 206.748 3.58176C208.439 3.58176 210.724 3.51915 213.604 3.39392L218.394 3.30001C218.519 3.30001 218.582 3.48785 218.582 3.86352C218.582 4.2392 218.519 4.42704 218.394 4.42704C216.516 4.42704 215.138 4.61488 214.262 4.99056C213.385 5.36624 212.79 5.99238 212.477 6.86896C212.227 7.74555 212.07 9.15435 212.008 11.0954V31.2882L230.04 12.7859C231.668 11.158 232.482 9.59264 232.482 8.08993C232.482 6.96289 232.044 6.0863 231.167 5.46016C230.291 4.77142 229.101 4.42704 227.598 4.42704C227.348 4.42704 227.223 4.2392 227.223 3.86352C227.223 3.48785 227.317 3.30001 227.504 3.30001L232.67 3.39392C236.176 3.51915 238.931 3.58176 240.935 3.58176C243.064 3.58176 245.255 3.51915 247.509 3.39392L251.078 3.30001C251.266 3.30001 251.36 3.48785 251.36 3.86352C251.36 4.2392 251.266 4.42704 251.078 4.42704C248.323 4.42704 245.287 5.24102 241.968 6.86896C238.65 8.4343 235.582 10.5945 232.764 13.3494L222.245 23.8685L235.394 41.7133C240.152 48.0372 243.502 52.4202 245.443 54.8621C247.447 57.2414 249.075 58.838 250.327 59.652C251.642 60.466 253.145 60.873 254.835 60.873ZM340.225 60.873C340.413 60.873 340.507 61.0608 340.507 61.4365C340.57 61.8122 340.476 62 340.225 62H330.646C326.951 62 324.635 61.8122 323.695 61.4365C322.819 61.0608 321.347 59.245 319.281 55.9891C317.278 52.7332 315.243 49.7278 313.176 46.9728L301.061 30.5368L297.398 34.1997V54.3925C297.398 56.5213 297.492 57.9927 297.68 58.8067C297.867 59.5581 298.368 60.0903 299.182 60.4034C300.059 60.7164 301.562 60.873 303.69 60.873C303.816 60.873 303.878 61.0608 303.878 61.4365C303.878 61.8122 303.816 62 303.69 62C301.624 62 300.059 61.9687 298.994 61.9061L291.95 61.8122L285.47 61.9061C284.28 61.9687 282.684 62 280.68 62C280.555 62 280.492 61.8122 280.492 61.4365C280.492 61.0608 280.555 60.873 280.68 60.873C282.621 60.873 284.03 60.7164 284.907 60.4034C285.783 60.0903 286.378 59.4955 286.691 58.6189C287.004 57.6797 287.161 56.2709 287.161 54.3925V10.9075C287.161 9.02912 287.004 7.65163 286.691 6.77505C286.378 5.89846 285.783 5.30363 284.907 4.99056C284.03 4.61488 282.715 4.42704 280.962 4.42704C280.774 4.42704 280.68 4.2392 280.68 3.86352C280.68 3.48785 280.774 3.30001 280.962 3.30001L285.47 3.39392C288.225 3.51915 290.448 3.58176 292.138 3.58176C293.829 3.58176 296.114 3.51915 298.994 3.39392L303.784 3.30001C303.91 3.30001 303.972 3.48785 303.972 3.86352C303.972 4.2392 303.91 4.42704 303.784 4.42704C301.906 4.42704 300.529 4.61488 299.652 4.99056C298.775 5.36624 298.181 5.99238 297.867 6.86896C297.617 7.74555 297.46 9.15435 297.398 11.0954V31.2882L315.43 12.7859C317.058 11.158 317.872 9.59264 317.872 8.08993C317.872 6.96289 317.434 6.0863 316.558 5.46016C315.681 4.77142 314.491 4.42704 312.989 4.42704C312.738 4.42704 312.613 4.2392 312.613 3.86352C312.613 3.48785 312.707 3.30001 312.895 3.30001L318.06 3.39392C321.567 3.51915 324.322 3.58176 326.325 3.58176C328.454 3.58176 330.646 3.51915 332.9 3.39392L336.469 3.30001C336.656 3.30001 336.75 3.48785 336.75 3.86352C336.75 4.2392 336.656 4.42704 336.469 4.42704C333.714 4.42704 330.677 5.24102 327.358 6.86896C324.04 8.4343 320.972 10.5945 318.154 13.3494L307.635 23.8685L320.784 41.7133C325.543 48.0372 328.892 52.4202 330.833 54.8621C332.837 57.2414 334.465 58.838 335.717 59.652C337.032 60.466 338.535 60.873 340.225 60.873ZM402.006 60.873C402.194 60.873 402.288 61.0608 402.288 61.4365C402.288 61.8122 402.194 62 402.006 62C400.879 62 399.126 61.9374 396.747 61.8122C394.117 61.6869 392.02 61.6243 390.454 61.6243C388.826 61.6243 386.823 61.6869 384.443 61.8122C382.189 61.9374 380.53 62 379.466 62C379.215 62 379.09 61.8122 379.09 61.4365C379.09 61.0608 379.215 60.873 379.466 60.873C381.344 60.873 382.69 60.6851 383.504 60.3094C384.318 59.8711 384.725 59.1198 384.725 58.0554C384.725 57.1162 384.349 55.8013 383.598 54.1107L375.333 34.2936H360.494L354.107 49.8843C353.105 52.2636 352.604 54.1733 352.604 55.6134C352.604 57.4292 353.324 58.7754 354.765 59.652C356.205 60.466 358.427 60.873 361.433 60.873C361.683 60.873 361.809 61.0608 361.809 61.4365C361.809 61.8122 361.652 62 361.339 62C360.525 62 358.741 61.9374 355.986 61.8122C352.855 61.6869 350.476 61.6243 348.848 61.6243C347.345 61.6243 345.592 61.6869 343.588 61.8122C341.835 61.9374 340.395 62 339.268 62C339.017 62 338.892 61.8122 338.892 61.4365C338.892 61.0608 339.017 60.873 339.268 60.873C341.146 60.873 343.181 59.8711 345.373 57.8675C347.627 55.8013 349.568 52.9211 351.196 49.2269L371.013 2.45473C371.013 2.26688 371.232 2.17296 371.67 2.17296C372.234 2.17296 372.641 2.29819 372.891 2.54864L393.929 54.1107C394.868 56.3022 395.557 57.7736 395.995 58.525C396.496 59.2763 397.185 59.8711 398.062 60.3094C398.938 60.6851 400.253 60.873 402.006 60.873ZM361.621 31.6638H374.3L367.913 16.3549L361.621 31.6638ZM455.284 3.30001C455.597 3.30001 455.754 3.48785 455.754 3.86352C455.754 4.2392 455.597 4.42704 455.284 4.42704C452.967 4.42704 450.932 5.08448 449.179 6.39936C447.489 7.71424 445.892 10.4066 444.389 14.4765L426.544 61.9061C426.357 62.2191 425.887 62.3757 425.136 62.3757C424.823 62.3757 424.51 62.3131 424.196 62.1878C423.883 62.1252 423.696 62.0313 423.633 61.9061L400.247 11.0954C399.12 8.59083 398.024 6.86896 396.96 5.92977C395.895 4.92795 394.486 4.42704 392.733 4.42704C392.545 4.42704 392.451 4.2392 392.451 3.86352C392.451 3.48785 392.514 3.30001 392.639 3.30001L397.617 3.39392C399.871 3.51915 401.53 3.58176 402.595 3.58176C404.974 3.58176 407.667 3.51915 410.672 3.39392L415.274 3.30001C415.587 3.30001 415.744 3.48785 415.744 3.86352C415.744 4.2392 415.587 4.42704 415.274 4.42704C411.768 4.42704 410.015 5.39755 410.015 7.33856C410.015 8.02731 410.265 8.96651 410.766 10.1562L428.423 48.9451L441.102 14.1947C441.603 12.8172 441.853 11.6276 441.853 10.6258C441.853 8.68475 441.133 7.18203 439.693 6.1176C438.253 4.99056 436.343 4.42704 433.964 4.42704C433.714 4.42704 433.588 4.2392 433.588 3.86352C433.588 3.48785 433.714 3.30001 433.964 3.30001L438.754 3.39392C441.509 3.51915 444.014 3.58176 446.268 3.58176C447.52 3.58176 449.085 3.51915 450.964 3.39392L455.284 3.30001ZM508.859 60.873C509.047 60.873 509.14 61.0608 509.14 61.4365C509.14 61.8122 509.047 62 508.859 62C507.732 62 505.979 61.9374 503.599 61.8122C500.969 61.6869 498.872 61.6243 497.307 61.6243C495.679 61.6243 493.675 61.6869 491.296 61.8122C489.042 61.9374 487.382 62 486.318 62C486.067 62 485.942 61.8122 485.942 61.4365C485.942 61.0608 486.067 60.873 486.318 60.873C488.196 60.873 489.543 60.6851 490.356 60.3094C491.17 59.8711 491.577 59.1198 491.577 58.0554C491.577 57.1162 491.202 55.8013 490.45 54.1107L482.185 34.2936H467.346L460.96 49.8843C459.958 52.2636 459.457 54.1733 459.457 55.6134C459.457 57.4292 460.177 58.7754 461.617 59.652C463.057 60.466 465.28 60.873 468.285 60.873C468.536 60.873 468.661 61.0608 468.661 61.4365C468.661 61.8122 468.504 62 468.191 62C467.377 62 465.593 61.9374 462.838 61.8122C459.707 61.6869 457.328 61.6243 455.7 61.6243C454.197 61.6243 452.444 61.6869 450.44 61.8122C448.687 61.9374 447.247 62 446.12 62C445.87 62 445.744 61.8122 445.744 61.4365C445.744 61.0608 445.87 60.873 446.12 60.873C447.999 60.873 450.033 59.8711 452.225 57.8675C454.479 55.8013 456.42 52.9211 458.048 49.2269L477.865 2.45473C477.865 2.26688 478.084 2.17296 478.523 2.17296C479.086 2.17296 479.493 2.29819 479.744 2.54864L500.782 54.1107C501.721 56.3022 502.41 57.7736 502.848 58.525C503.349 59.2763 504.037 59.8711 504.914 60.3094C505.791 60.6851 507.106 60.873 508.859 60.873ZM468.473 31.6638H481.152L474.766 16.3549L468.473 31.6638ZM543.019 63.127C535.318 63.127 528.994 61.6243 524.047 58.6189C519.101 55.6134 515.532 51.8253 513.34 47.2546C511.149 42.6212 510.053 37.7373 510.053 32.603C510.053 26.4043 511.556 21.0196 514.561 16.4488C517.629 11.8154 521.668 8.30907 526.677 5.92977C531.749 3.48784 537.227 2.26688 543.113 2.26688C545.993 2.26688 548.999 2.54864 552.129 3.11216C555.26 3.61307 557.796 4.2392 559.737 4.99056C560.238 5.30363 560.551 5.58539 560.676 5.83584C560.864 6.08629 560.958 6.52459 560.958 7.15072L561.615 19.736C561.615 19.9238 561.459 20.0178 561.146 20.0178C560.895 20.0178 560.707 19.9238 560.582 19.736C558.266 14.9774 555.291 11.3145 551.66 8.74736C548.091 6.1176 544.021 4.80272 539.45 4.80272C533.502 4.80272 528.931 6.96288 525.738 11.2832C522.607 15.6035 521.042 21.677 521.042 29.5037C521.042 35.1389 522.012 40.3984 523.953 45.2822C525.957 50.1661 528.649 54.0481 532.031 56.9283C535.412 59.8085 539.137 61.2486 543.207 61.2486C549.656 61.2486 555.667 56.49 561.24 46.9728C561.365 46.785 561.521 46.691 561.709 46.691C562.085 46.691 562.273 46.8789 562.273 47.2546L561.709 58.0554C561.584 58.8693 561.459 59.4015 561.334 59.652C561.208 59.8398 560.864 60.0277 560.3 60.2155C554.79 62.1565 549.03 63.127 543.019 63.127ZM571.549 62C571.424 62 571.361 61.8122 571.361 61.4365C571.361 61.0608 571.424 60.873 571.549 60.873C573.49 60.873 574.867 60.7164 575.681 60.4034C576.558 60.0903 577.153 59.4955 577.466 58.6189C577.779 57.7423 577.935 56.3335 577.935 54.3925V10.9075C577.935 9.09174 577.748 7.74555 577.372 6.86896C577.059 5.92976 576.464 5.30363 575.587 4.99056C574.711 4.61488 573.365 4.42704 571.549 4.42704C571.424 4.42704 571.33 4.2392 571.267 3.86352C571.267 3.48785 571.361 3.30001 571.549 3.30001L576.245 3.39392C579 3.51915 581.223 3.58176 582.913 3.58176C584.792 3.58176 587.171 3.51915 590.051 3.39392L594.653 3.30001C594.778 3.30001 594.841 3.48785 594.841 3.86352C594.841 4.2392 594.778 4.42704 594.653 4.42704C592.775 4.42704 591.397 4.61488 590.521 4.99056C589.644 5.36624 589.049 5.99238 588.736 6.86896C588.486 7.74555 588.329 9.15435 588.267 11.0954V54.3925C588.267 56.2709 588.423 57.6484 588.736 58.525C589.112 59.4015 589.738 60.0277 590.615 60.4034C591.491 60.7164 592.837 60.873 594.653 60.873C594.778 60.873 594.841 61.0608 594.841 61.4365C594.841 61.8122 594.778 62 594.653 62C592.712 62 591.147 61.9687 589.957 61.9061L583.101 61.8122L576.433 61.9061C575.243 61.9687 573.615 62 571.549 62Z" fill="url(#paint0_linear_1_3)"/>
<defs>
<linearGradient id="paint0_linear_1_3" x1="299" y1="4" x2="299" y2="62" gradientUnits="userSpaceOnUse">
<stop stop-color="#DCCA87"/>
<stop offset="1" stop-color="#FBF6C1"/>
</linearGradient>
</defs>
</svg>
