<svg width="199" height="23" viewBox="0 0 199 23" fill="none" xmlns="http://www.w3.org/2000/svg">
<g id="TURK KAVACI">
<path d="M5.03341 21.3412C4.97104 21.3412 4.93985 21.2788 4.93985 21.154C4.93985 21.0293 4.96064 20.9669 5.00222 20.9669C5.87543 20.9669 6.50955 20.915 6.90458 20.811C7.32039 20.707 7.60107 20.5095 7.7466 20.2185C7.89214 19.9066 7.96491 19.4388 7.96491 18.8151V4.3759C7.9857 3.64822 7.89214 3.17004 7.68423 2.94134C7.47632 2.69185 7.0813 2.5671 6.49916 2.5671H6.09374C5.38685 2.5671 4.69036 2.7958 4.00427 3.2532C3.31817 3.68981 2.73603 4.28234 2.25784 5.03081C1.77965 5.75849 1.48858 6.55893 1.38463 7.43214C1.38463 7.47372 1.33265 7.49451 1.2287 7.49451C1.16633 7.49451 1.10395 7.48412 1.04158 7.46333C1 7.42175 0.989605 7.39056 1.0104 7.36977C1.11435 6.57972 1.27028 4.51104 1.47819 1.16373C1.47819 1.10135 1.53016 1.07017 1.63412 1.07017C1.69649 1.07017 1.74847 1.08056 1.79005 1.10135C1.85242 1.12215 1.88361 1.15333 1.88361 1.19491C1.88361 1.63152 2.3514 1.84982 3.28698 1.84982C4.97104 1.9122 7.0813 1.94338 9.61777 1.94338C10.7613 1.94338 12.0399 1.92259 13.4537 1.88101L15.6367 1.84982C16.3228 1.84982 16.8218 1.79785 17.1336 1.69389C17.4455 1.58994 17.643 1.38203 17.7262 1.07017C17.7678 1.0078 17.8405 0.987005 17.9445 1.0078C18.0692 1.0078 18.1212 1.04938 18.1004 1.13254C18.038 2.04733 17.9757 3.20122 17.9133 4.5942C17.8509 5.96639 17.8301 6.89158 17.8509 7.36977C17.8509 7.43214 17.7885 7.46333 17.6638 7.46333C17.4975 7.46333 17.4143 7.42175 17.4143 7.33858C17.4143 6.48616 17.2168 5.69611 16.8218 4.96844C16.4475 4.24076 15.9174 3.65862 15.2313 3.22201C14.566 2.78541 13.8383 2.5671 13.0482 2.5671H12.6428C12.227 2.5671 11.9255 2.61908 11.7384 2.72304C11.5721 2.82699 11.4682 3.00371 11.4266 3.2532C11.385 3.4819 11.3538 3.87692 11.333 4.43827L11.3642 18.8151C11.3642 19.4596 11.4266 19.9274 11.5513 20.2185C11.6968 20.5095 11.9671 20.707 12.3622 20.811C12.7572 20.915 13.4017 20.9669 14.2957 20.9669C14.3581 20.9669 14.3893 21.0293 14.3893 21.154C14.3893 21.2788 14.3581 21.3412 14.2957 21.3412C13.5264 21.3412 12.9235 21.3308 12.4869 21.31L9.64896 21.2788L6.96695 21.31C6.50955 21.3308 5.86504 21.3412 5.03341 21.3412Z" stroke="url(#paint0_linear_17_5)" stroke-width="0.6"/>
<path d="M41.7302 20.9669C41.7926 20.9669 41.8238 21.0293 41.8238 21.154C41.8238 21.2788 41.7926 21.3412 41.7302 21.3412L38.674 21.31L36.3039 21.3412C36.0752 21.3412 35.9296 21.31 35.8673 21.2476C35.8257 21.1852 35.8049 21.0189 35.8049 20.7486V19.3764C34.8069 20.2081 33.7986 20.811 32.7798 21.1852C31.7819 21.5387 30.6903 21.7154 29.5053 21.7154C28.0291 21.7154 26.7089 21.4659 25.5446 20.9669C24.3804 20.468 23.4656 19.7507 22.8003 18.8151C22.1349 17.8795 21.8023 16.788 21.8023 15.5405V4.3759C21.8023 3.77297 21.7399 3.32597 21.6152 3.0349C21.5112 2.72303 21.3137 2.51513 21.0226 2.41117C20.7316 2.28643 20.295 2.22406 19.7128 2.22406C19.6505 2.22406 19.6193 2.16168 19.6193 2.03694C19.6193 1.9122 19.6505 1.84982 19.7128 1.84982L21.2409 1.88101C22.1142 1.92259 22.8522 1.94338 23.4552 1.94338C23.9957 1.94338 24.7442 1.92259 25.7006 1.88101L27.2599 1.84982C27.343 1.84982 27.3846 1.9122 27.3846 2.03694C27.4054 2.16168 27.3846 2.22406 27.3222 2.22406C26.6985 2.22406 26.2307 2.28643 25.9189 2.41117C25.6278 2.53592 25.4303 2.74383 25.3263 3.0349C25.2432 3.32597 25.1912 3.79376 25.1704 4.43827V14.449C25.1496 16.3826 25.6278 17.8899 26.605 18.971C27.5821 20.0313 28.9439 20.5615 30.6903 20.5615C31.5844 20.5615 32.4368 20.4056 33.2476 20.0937C34.0585 19.7611 34.9109 19.2205 35.8049 18.472L35.7737 4.43827C35.7945 3.54427 35.6697 2.95173 35.3995 2.66066C35.1292 2.36959 34.5678 2.22406 33.7154 2.22406C33.653 2.22406 33.6218 2.16168 33.6218 2.03694C33.6218 1.9122 33.6426 1.84982 33.6842 1.84982L35.2435 1.88101C36.1583 1.92259 36.9068 1.94338 37.4889 1.94338C38.0087 1.94338 38.7468 1.92259 39.7031 1.88101L41.2625 1.84982C41.3456 1.84982 41.3872 1.9122 41.3872 2.03694C41.408 2.16168 41.3872 2.22406 41.3248 2.22406C40.7011 2.22406 40.2333 2.28643 39.9215 2.41117C39.6304 2.51513 39.4329 2.71264 39.3289 3.00371C39.225 3.29478 39.173 3.75218 39.173 4.3759V18.8151C39.173 19.4388 39.2354 19.9066 39.3601 20.2185C39.4848 20.5095 39.7239 20.707 40.0774 20.811C40.4308 20.915 40.9818 20.9669 41.7302 20.9669Z" stroke="url(#paint1_linear_17_5)" stroke-width="0.6"/>
<path d="M64.8514 20.9669C64.9137 20.9669 64.9449 21.0293 64.9449 21.154C64.9657 21.2788 64.9345 21.3412 64.8514 21.3412H59.7368C59.2379 21.3412 58.3646 20.5095 57.1172 18.8463C55.8905 17.1622 54.404 14.6361 52.6576 11.268C52.0754 11.4136 51.4309 11.4863 50.724 11.4863C50.6201 11.4863 50.4849 11.4656 50.3186 11.424V18.8151C50.2978 19.418 50.3394 19.8754 50.4434 20.1873C50.5681 20.4783 50.776 20.6863 51.0671 20.811C51.3789 20.915 51.8467 20.9669 52.4705 20.9669C52.5536 20.9669 52.5952 21.0293 52.5952 21.154C52.616 21.2788 52.5848 21.3412 52.5016 21.3412C51.7948 21.3412 51.2542 21.3308 50.88 21.31L48.5722 21.2788L46.2332 21.31C45.8174 21.3308 45.2561 21.3412 44.5492 21.3412C44.466 21.3412 44.414 21.2788 44.3932 21.154C44.3932 21.0293 44.4348 20.9669 44.518 20.9669C45.2041 20.9669 45.7135 20.915 46.0461 20.811C46.3788 20.6863 46.5971 20.4783 46.701 20.1873C46.8258 19.8754 46.8985 19.418 46.9193 18.8151V4.3759C46.9193 3.75218 46.857 3.29478 46.7322 3.00371C46.6283 2.71264 46.4203 2.51513 46.1085 2.41117C45.7966 2.28643 45.3184 2.22406 44.6739 2.22406C44.5908 2.22406 44.5492 2.16168 44.5492 2.03694C44.5492 1.9122 44.5908 1.84982 44.6739 1.84982L46.3268 1.88101C47.2416 1.92259 47.9901 1.94338 48.5722 1.94338C49.2791 1.94338 50.0483 1.9018 50.88 1.81864C51.5453 1.77705 51.9819 1.75626 52.1898 1.75626C54.2897 1.75626 55.8594 2.09931 56.8989 2.78541C57.9592 3.4715 58.4894 4.42788 58.4894 5.65453C58.4894 6.54854 58.1879 7.41135 57.585 8.24298C57.0028 9.07461 56.2232 9.7711 55.246 10.3325C56.8677 13.0145 58.2399 15.1247 59.3626 16.6632C60.5061 18.181 61.5041 19.2829 62.3565 19.969C63.2297 20.6343 64.0613 20.9669 64.8514 20.9669ZM50.3186 10.5508C50.5681 10.6131 50.8696 10.6443 51.223 10.6443C52.5952 10.6443 53.562 10.3429 54.1233 9.73992C54.7055 9.13699 54.9965 8.12863 54.9965 6.71486C54.9965 5.23872 54.7055 4.1576 54.1233 3.4715C53.562 2.76462 52.8655 2.41117 52.0339 2.41117C51.4725 2.41117 51.0879 2.45275 50.88 2.53592C50.6721 2.59829 50.5265 2.76462 50.4434 3.0349C50.381 3.28439 50.3394 3.75218 50.3186 4.43827V10.5508Z" stroke="url(#paint2_linear_17_5)" stroke-width="0.6"/>
<path d="M85.5129 20.9669C85.5753 20.9669 85.6065 21.0293 85.6065 21.154C85.6273 21.2788 85.5961 21.3412 85.5129 21.3412H82.3319C81.1053 21.3412 80.336 21.2788 80.0242 21.154C79.7331 21.0293 79.2445 20.4264 78.5584 19.3453C77.8931 18.2641 77.2174 17.2662 76.5313 16.3514L72.5083 10.8938L71.292 12.1101V18.8151C71.292 19.522 71.3232 20.0106 71.3856 20.2808C71.448 20.5303 71.6143 20.707 71.8846 20.811C72.1756 20.915 72.6746 20.9669 73.3815 20.9669C73.4231 20.9669 73.4439 21.0293 73.4439 21.154C73.4439 21.2788 73.4231 21.3412 73.3815 21.3412C72.6954 21.3412 72.1756 21.3308 71.8222 21.31L69.4832 21.2788L67.3314 21.31C66.9364 21.3308 66.4062 21.3412 65.7409 21.3412C65.6993 21.3412 65.6785 21.2788 65.6785 21.154C65.6785 21.0293 65.6993 20.9669 65.7409 20.9669C66.3854 20.9669 66.8532 20.915 67.1443 20.811C67.4354 20.707 67.6329 20.5095 67.7368 20.2185C67.8408 19.9066 67.8927 19.4388 67.8927 18.8151V4.3759C67.8927 3.75218 67.8408 3.29478 67.7368 3.00371C67.6329 2.71264 67.4354 2.51513 67.1443 2.41117C66.8532 2.28643 66.4166 2.22406 65.8345 2.22406C65.7721 2.22406 65.7409 2.16168 65.7409 2.03694C65.7409 1.9122 65.7721 1.84982 65.8345 1.84982L67.3314 1.88101C68.2462 1.92259 68.9843 1.94338 69.5456 1.94338C70.107 1.94338 70.8658 1.92259 71.8222 1.88101L73.4127 1.84982C73.4543 1.84982 73.4751 1.9122 73.4751 2.03694C73.4751 2.16168 73.4543 2.22406 73.4127 2.22406C72.789 2.22406 72.3316 2.28643 72.0405 2.41117C71.7494 2.53592 71.5519 2.74383 71.448 3.0349C71.3648 3.32597 71.3128 3.79376 71.292 4.43827V11.1433L77.2798 4.99962C77.8203 4.45906 78.0906 3.9393 78.0906 3.44032C78.0906 3.06608 77.9451 2.77501 77.654 2.5671C77.3629 2.33841 76.9679 2.22406 76.4689 2.22406C76.3858 2.22406 76.3442 2.16168 76.3442 2.03694C76.3442 1.9122 76.3754 1.84982 76.4377 1.84982L78.153 1.88101C79.3173 1.92259 80.2321 1.94338 80.8974 1.94338C81.6043 1.94338 82.3319 1.92259 83.0804 1.88101L84.2655 1.84982C84.3278 1.84982 84.359 1.9122 84.359 2.03694C84.359 2.16168 84.3278 2.22406 84.2655 2.22406C83.3507 2.22406 82.3423 2.49434 81.2404 3.0349C80.1385 3.55467 79.1198 4.27195 78.1842 5.18674L74.6913 8.67959L79.0574 14.605C80.6375 16.7048 81.7498 18.1602 82.3943 18.971C83.0596 19.7611 83.6002 20.2912 84.016 20.5615C84.4526 20.8318 84.9516 20.9669 85.5129 20.9669Z" stroke="url(#paint3_linear_17_5)" stroke-width="0.6"/>
<path d="M113.867 20.9669C113.929 20.9669 113.96 21.0293 113.96 21.154C113.981 21.2788 113.95 21.3412 113.867 21.3412H110.686C109.459 21.3412 108.69 21.2788 108.378 21.154C108.087 21.0293 107.598 20.4264 106.912 19.3453C106.247 18.2641 105.571 17.2662 104.885 16.3514L100.862 10.8938L99.6458 12.1101V18.8151C99.6458 19.522 99.677 20.0106 99.7394 20.2808C99.8018 20.5303 99.9681 20.707 100.238 20.811C100.529 20.915 101.028 20.9669 101.735 20.9669C101.777 20.9669 101.798 21.0293 101.798 21.154C101.798 21.2788 101.777 21.3412 101.735 21.3412C101.049 21.3412 100.529 21.3308 100.176 21.31L97.837 21.2788L95.6852 21.31C95.2902 21.3308 94.76 21.3412 94.0947 21.3412C94.0531 21.3412 94.0323 21.2788 94.0323 21.154C94.0323 21.0293 94.0531 20.9669 94.0947 20.9669C94.7392 20.9669 95.207 20.915 95.4981 20.811C95.7892 20.707 95.9867 20.5095 96.0906 20.2185C96.1946 19.9066 96.2466 19.4388 96.2466 18.8151V4.3759C96.2466 3.75218 96.1946 3.29478 96.0906 3.00371C95.9867 2.71264 95.7892 2.51513 95.4981 2.41117C95.207 2.28643 94.7704 2.22406 94.1883 2.22406C94.1259 2.22406 94.0947 2.16168 94.0947 2.03694C94.0947 1.9122 94.1259 1.84982 94.1883 1.84982L95.6852 1.88101C96.6 1.92259 97.3381 1.94338 97.8994 1.94338C98.4608 1.94338 99.2196 1.92259 100.176 1.88101L101.766 1.84982C101.808 1.84982 101.829 1.9122 101.829 2.03694C101.829 2.16168 101.808 2.22406 101.766 2.22406C101.143 2.22406 100.685 2.28643 100.394 2.41117C100.103 2.53592 99.9057 2.74383 99.8018 3.0349C99.7186 3.32597 99.6666 3.79376 99.6458 4.43827V11.1433L105.634 4.99962C106.174 4.45906 106.444 3.9393 106.444 3.44032C106.444 3.06608 106.299 2.77501 106.008 2.5671C105.717 2.33841 105.322 2.22406 104.823 2.22406C104.74 2.22406 104.698 2.16168 104.698 2.03694C104.698 1.9122 104.729 1.84982 104.792 1.84982L106.507 1.88101C107.671 1.92259 108.586 1.94338 109.251 1.94338C109.958 1.94338 110.686 1.92259 111.434 1.88101L112.619 1.84982C112.682 1.84982 112.713 1.9122 112.713 2.03694C112.713 2.16168 112.682 2.22406 112.619 2.22406C111.704 2.22406 110.696 2.49434 109.594 3.0349C108.492 3.55467 107.474 4.27195 106.538 5.18674L103.045 8.67959L107.411 14.605C108.991 16.7048 110.104 18.1602 110.748 18.971C111.413 19.7611 111.954 20.2912 112.37 20.5615C112.806 20.8318 113.305 20.9669 113.867 20.9669Z" stroke="url(#paint4_linear_17_5)" stroke-width="0.6"/>
<path d="M134.381 20.9669C134.443 20.9669 134.475 21.0293 134.475 21.154C134.475 21.2788 134.443 21.3412 134.381 21.3412C134.007 21.3412 133.425 21.3204 132.635 21.2788C131.761 21.2372 131.065 21.2164 130.545 21.2164C130.005 21.2164 129.339 21.2372 128.549 21.2788C127.801 21.3204 127.25 21.3412 126.896 21.3412C126.813 21.3412 126.772 21.2788 126.772 21.154C126.772 21.0293 126.813 20.9669 126.896 20.9669C127.52 20.9669 127.967 20.9046 128.237 20.7798C128.508 20.6343 128.643 20.3848 128.643 20.0313C128.643 19.7195 128.518 19.2829 128.269 18.7215L125.524 12.1413H120.597L118.476 17.3182C118.144 18.1082 117.977 18.7423 117.977 19.2205C117.977 19.8234 118.216 20.2704 118.694 20.5615C119.173 20.8318 119.911 20.9669 120.909 20.9669C120.992 20.9669 121.033 21.0293 121.033 21.154C121.033 21.2788 120.981 21.3412 120.878 21.3412C120.607 21.3412 120.015 21.3204 119.1 21.2788C118.06 21.2372 117.27 21.2164 116.73 21.2164C116.231 21.2164 115.649 21.2372 114.983 21.2788C114.401 21.3204 113.923 21.3412 113.549 21.3412C113.466 21.3412 113.424 21.2788 113.424 21.154C113.424 21.0293 113.466 20.9669 113.549 20.9669C114.172 20.9669 114.848 20.6343 115.576 19.969C116.324 19.2829 116.969 18.3265 117.509 17.0998L124.09 1.56915C124.09 1.50678 124.162 1.47559 124.308 1.47559C124.495 1.47559 124.63 1.51717 124.713 1.60033L131.699 18.7215C132.011 19.4492 132.24 19.9378 132.385 20.1873C132.552 20.4368 132.78 20.6343 133.071 20.7798C133.362 20.9046 133.799 20.9669 134.381 20.9669ZM120.971 11.268H125.181L123.061 6.1847L120.971 11.268Z" stroke="url(#paint5_linear_17_5)" stroke-width="0.6"/>
<path d="M152.072 1.84982C152.176 1.84982 152.228 1.9122 152.228 2.03694C152.228 2.16168 152.176 2.22406 152.072 2.22406C151.303 2.22406 150.627 2.44236 150.045 2.87897C149.483 3.31557 148.953 4.20957 148.454 5.56097L142.529 21.31C142.467 21.4139 142.311 21.4659 142.061 21.4659C141.957 21.4659 141.853 21.4451 141.749 21.4035C141.645 21.3827 141.583 21.3516 141.562 21.31L133.797 4.43827C133.423 3.60664 133.059 3.0349 132.705 2.72304C132.352 2.39038 131.884 2.22406 131.302 2.22406C131.24 2.22406 131.208 2.16168 131.208 2.03694C131.208 1.9122 131.229 1.84982 131.271 1.84982L132.924 1.88101C133.672 1.92259 134.223 1.94338 134.577 1.94338C135.367 1.94338 136.261 1.92259 137.259 1.88101L138.787 1.84982C138.891 1.84982 138.943 1.9122 138.943 2.03694C138.943 2.16168 138.891 2.22406 138.787 2.22406C137.622 2.22406 137.04 2.54631 137.04 3.19083C137.04 3.41953 137.123 3.73139 137.29 4.12641L143.153 17.0063L147.363 5.46742C147.529 5.01002 147.612 4.61499 147.612 4.28234C147.612 3.63783 147.373 3.13885 146.895 2.78541C146.417 2.41117 145.783 2.22406 144.993 2.22406C144.91 2.22406 144.868 2.16168 144.868 2.03694C144.868 1.9122 144.91 1.84982 144.993 1.84982L146.583 1.88101C147.498 1.92259 148.33 1.94338 149.078 1.94338C149.494 1.94338 150.014 1.92259 150.637 1.88101L152.072 1.84982Z" stroke="url(#paint6_linear_17_5)" stroke-width="0.6"/>
<path d="M169.861 20.9669C169.924 20.9669 169.955 21.0293 169.955 21.154C169.955 21.2788 169.924 21.3412 169.861 21.3412C169.487 21.3412 168.905 21.3204 168.115 21.2788C167.242 21.2372 166.545 21.2164 166.026 21.2164C165.485 21.2164 164.82 21.2372 164.03 21.2788C163.281 21.3204 162.73 21.3412 162.377 21.3412C162.294 21.3412 162.252 21.2788 162.252 21.154C162.252 21.0293 162.294 20.9669 162.377 20.9669C163 20.9669 163.448 20.9046 163.718 20.7798C163.988 20.6343 164.123 20.3848 164.123 20.0313C164.123 19.7195 163.998 19.2829 163.749 18.7215L161.005 12.1413H156.077L153.957 17.3182C153.624 18.1082 153.458 18.7423 153.458 19.2205C153.458 19.8234 153.697 20.2704 154.175 20.5615C154.653 20.8318 155.391 20.9669 156.389 20.9669C156.472 20.9669 156.514 21.0293 156.514 21.154C156.514 21.2788 156.462 21.3412 156.358 21.3412C156.088 21.3412 155.495 21.3204 154.58 21.2788C153.541 21.2372 152.751 21.2164 152.21 21.2164C151.711 21.2164 151.129 21.2372 150.464 21.2788C149.882 21.3204 149.403 21.3412 149.029 21.3412C148.946 21.3412 148.904 21.2788 148.904 21.154C148.904 21.0293 148.946 20.9669 149.029 20.9669C149.653 20.9669 150.329 20.6343 151.056 19.969C151.805 19.2829 152.449 18.3265 152.99 17.0998L159.57 1.56915C159.57 1.50678 159.643 1.47559 159.788 1.47559C159.975 1.47559 160.111 1.51717 160.194 1.60033L167.179 18.7215C167.491 19.4492 167.72 19.9378 167.866 20.1873C168.032 20.4368 168.261 20.6343 168.552 20.7798C168.843 20.9046 169.279 20.9669 169.861 20.9669ZM156.451 11.268H160.662L158.541 6.1847L156.451 11.268Z" stroke="url(#paint7_linear_17_5)" stroke-width="0.6"/>
<path d="M181.204 21.7154C178.647 21.7154 176.547 21.2164 174.905 20.2185C173.262 19.2205 172.077 17.9627 171.35 16.4449C170.622 14.9064 170.258 13.2847 170.258 11.5799C170.258 9.52161 170.757 7.73361 171.755 6.21588C172.774 4.67737 174.115 3.51308 175.778 2.72304C177.462 1.9122 179.281 1.50677 181.236 1.50677C182.192 1.50677 183.19 1.60033 184.229 1.78745C185.269 1.95378 186.111 2.16168 186.756 2.41117C186.922 2.51513 187.026 2.60868 187.067 2.69185C187.13 2.77501 187.161 2.92055 187.161 3.12845L187.379 7.3074C187.379 7.36977 187.327 7.40096 187.223 7.40096C187.14 7.40096 187.078 7.36977 187.036 7.3074C186.267 5.7273 185.279 4.51104 184.074 3.65862C182.888 2.78541 181.537 2.3488 180.019 2.3488C178.044 2.3488 176.527 3.06608 175.466 4.50065C174.427 5.93521 173.907 7.95191 173.907 10.5508C173.907 12.4219 174.229 14.1684 174.874 15.79C175.539 17.4117 176.433 18.7007 177.556 19.6571C178.678 20.6135 179.915 21.0917 181.267 21.0917C183.408 21.0917 185.404 19.5116 187.255 16.3514C187.296 16.289 187.348 16.2578 187.41 16.2578C187.535 16.2578 187.598 16.3202 187.598 16.4449L187.41 20.0313C187.369 20.3016 187.327 20.4783 187.286 20.5615C187.244 20.6239 187.13 20.6863 186.943 20.7486C185.113 21.3931 183.2 21.7154 181.204 21.7154Z" stroke="url(#paint8_linear_17_5)" stroke-width="0.6"/>
<path d="M190.678 21.3412C190.636 21.3412 190.615 21.2788 190.615 21.154C190.615 21.0293 190.636 20.9669 190.678 20.9669C191.322 20.9669 191.78 20.915 192.05 20.811C192.341 20.707 192.538 20.5095 192.642 20.2185C192.746 19.9274 192.798 19.4596 192.798 18.8151V4.3759C192.798 3.77297 192.736 3.32597 192.611 3.0349C192.507 2.72303 192.31 2.51513 192.019 2.41117C191.728 2.28643 191.281 2.22406 190.678 2.22406C190.636 2.22406 190.605 2.16168 190.584 2.03694C190.584 1.9122 190.615 1.84982 190.678 1.84982L192.237 1.88101C193.152 1.92259 193.89 1.94338 194.451 1.94338C195.075 1.94338 195.865 1.92259 196.821 1.88101L198.35 1.84982C198.391 1.84982 198.412 1.9122 198.412 2.03694C198.412 2.16168 198.391 2.22406 198.35 2.22406C197.726 2.22406 197.268 2.28643 196.977 2.41117C196.686 2.53592 196.489 2.74383 196.385 3.0349C196.302 3.32597 196.25 3.79376 196.229 4.43827V18.8151C196.229 19.4388 196.281 19.8962 196.385 20.1873C196.51 20.4783 196.717 20.6863 197.008 20.811C197.3 20.915 197.747 20.9669 198.35 20.9669C198.391 20.9669 198.412 21.0293 198.412 21.154C198.412 21.2788 198.391 21.3412 198.35 21.3412C197.705 21.3412 197.185 21.3308 196.79 21.31L194.514 21.2788L192.299 21.31C191.904 21.3308 191.364 21.3412 190.678 21.3412Z" stroke="url(#paint9_linear_17_5)" stroke-width="0.6"/>
</g>
<defs>
<linearGradient id="paint0_linear_17_5" x1="99.7059" y1="1" x2="99.7059" y2="21.7154" gradientUnits="userSpaceOnUse">
<stop stop-color="#DCCA87"/>
<stop offset="1" stop-color="#FBF6C1"/>
</linearGradient>
<linearGradient id="paint1_linear_17_5" x1="99.7059" y1="1" x2="99.7059" y2="21.7154" gradientUnits="userSpaceOnUse">
<stop stop-color="#DCCA87"/>
<stop offset="1" stop-color="#FBF6C1"/>
</linearGradient>
<linearGradient id="paint2_linear_17_5" x1="99.7059" y1="1" x2="99.7059" y2="21.7154" gradientUnits="userSpaceOnUse">
<stop stop-color="#DCCA87"/>
<stop offset="1" stop-color="#FBF6C1"/>
</linearGradient>
<linearGradient id="paint3_linear_17_5" x1="99.7059" y1="1" x2="99.7059" y2="21.7154" gradientUnits="userSpaceOnUse">
<stop stop-color="#DCCA87"/>
<stop offset="1" stop-color="#FBF6C1"/>
</linearGradient>
<linearGradient id="paint4_linear_17_5" x1="99.7059" y1="1" x2="99.7059" y2="21.7154" gradientUnits="userSpaceOnUse">
<stop stop-color="#DCCA87"/>
<stop offset="1" stop-color="#FBF6C1"/>
</linearGradient>
<linearGradient id="paint5_linear_17_5" x1="99.7059" y1="1" x2="99.7059" y2="21.7154" gradientUnits="userSpaceOnUse">
<stop stop-color="#DCCA87"/>
<stop offset="1" stop-color="#FBF6C1"/>
</linearGradient>
<linearGradient id="paint6_linear_17_5" x1="99.7059" y1="1" x2="99.7059" y2="21.7154" gradientUnits="userSpaceOnUse">
<stop stop-color="#DCCA87"/>
<stop offset="1" stop-color="#FBF6C1"/>
</linearGradient>
<linearGradient id="paint7_linear_17_5" x1="99.7059" y1="1" x2="99.7059" y2="21.7154" gradientUnits="userSpaceOnUse">
<stop stop-color="#DCCA87"/>
<stop offset="1" stop-color="#FBF6C1"/>
</linearGradient>
<linearGradient id="paint8_linear_17_5" x1="99.7059" y1="1" x2="99.7059" y2="21.7154" gradientUnits="userSpaceOnUse">
<stop stop-color="#DCCA87"/>
<stop offset="1" stop-color="#FBF6C1"/>
</linearGradient>
<linearGradient id="paint9_linear_17_5" x1="99.7059" y1="1" x2="99.7059" y2="21.7154" gradientUnits="userSpaceOnUse">
<stop stop-color="#DCCA87"/>
<stop offset="1" stop-color="#FBF6C1"/>
</linearGradient>
</defs>
</svg>
